<?xml version="1.0" encoding="utf-8"?><svg xmlns="http://www.w3.org/2000/svg" xmlns:xlink="http://www.w3.org/1999/xlink"><symbol viewBox="0 0 512 512" id="gulp" xmlns="http://www.w3.org/2000/svg"><path d="M365.662 122.251H68.275c-11.362 0-19.961 10.274-17.959 21.459l61.888 345.76c2.334 13.038 13.675 22.53 26.921 22.53h155.686c13.246 0 24.587-9.492 26.921-22.53l61.888-345.76c2.003-11.185-6.596-21.459-17.958-21.459z" fill="#80cbde"/><path d="M105.637 452.78l6.567 36.69c2.334 13.038 13.675 22.53 26.921 22.53h155.686c13.246 0 24.587-9.492 26.921-22.53l6.567-36.69H105.637z" opacity=".3" fill="#fff"/><path fill="#bd9d7d" d="M62.428 211.377l43.209 241.403H328.3l43.209-241.403z"/><g opacity=".2" fill="#fff"><circle cx="221.92" cy="269.2" r="7.48"/><circle cx="113.12" cy="291.64" r="7.48"/><circle cx="317.9" cy="288.16" r="7.48"/><circle cx="174.42" cy="415.34" r="7.48"/></g><path d="M298.11 250.532l-34.976-8.651 49.692-200.883A53.852 53.852 0 0 1 365.201 0h90.529a6.244 6.244 0 0 1 6.244 6.244v23.542a6.244 6.244 0 0 1-6.244 6.244h-90.529a17.89 17.89 0 0 0-17.399 13.619L298.11 250.532z" fill="#e8618c"/><g fill="#80cbde"><path d="M365.662 122.251H68.275c-11.362 0-19.961 10.274-17.959 21.459l12.112 67.667h309.081l12.112-67.667c2.002-11.185-6.597-21.459-17.959-21.459z" opacity=".3"/><path d="M199.648 237.317l-34.874 34.874c-5.888 5.888-15.434 5.888-21.322 0l-34.874-34.874c-5.888-5.888-5.888-15.434 0-21.322l34.874-34.874c5.888-5.888 15.434-5.888 21.322 0l34.874 34.874c5.888 5.888 5.888 15.434 0 21.322z"/></g><path d="M199.648 237.317l-34.874 34.874c-5.888 5.888-15.434 5.888-21.322 0l-34.874-34.874c-5.888-5.888-5.888-15.434 0-21.322l34.874-34.874c5.888-5.888 15.434-5.888 21.322 0l34.874 34.874c5.888 5.888 5.888 15.434 0 21.322z" opacity=".4" fill="#fff"/><path d="M317.469 189.892l16.868 46.345c2.848 7.825-1.186 16.476-9.011 19.324l-46.346 16.868c-7.824 2.848-16.476-1.186-19.324-9.011l-16.868-46.346c-2.848-7.825 1.187-16.476 9.011-19.324l46.346-16.868c7.825-2.847 16.476 1.188 19.324 9.012z" fill="#80cbde"/><path d="M317.469 189.892l16.868 46.345c2.848 7.825-1.186 16.476-9.011 19.324l-46.346 16.868c-7.824 2.848-16.476-1.186-19.324-9.011l-16.868-46.346c-2.848-7.825 1.187-16.476 9.011-19.324l46.346-16.868c7.825-2.847 16.476 1.188 19.324 9.012z" opacity=".4" fill="#fff"/><path d="M136.749 358.539a7.5 7.5 0 0 1-7.5-7.5v-13.316c0-4.143 3.358-7.5 7.5-7.5s7.5 3.357 7.5 7.5v13.316a7.5 7.5 0 0 1-7.5 7.5zm160.439 0a7.5 7.5 0 0 1-7.5-7.5v-13.316c0-4.143 3.358-7.5 7.5-7.5s7.5 3.357 7.5 7.5v13.316a7.5 7.5 0 0 1-7.5 7.5zm-80.219 10.226a35.548 35.548 0 0 1-26.804-12.209 7.5 7.5 0 0 1 11.309-9.854 20.555 20.555 0 0 0 15.495 7.063 20.553 20.553 0 0 0 15.495-7.063 7.5 7.5 0 0 1 11.308 9.855 35.55 35.55 0 0 1-26.803 12.208z" fill="#4a5058"/><path d="M365.662 122.251h-42.923c11.363 0 19.961 10.274 17.959 21.459L278.81 489.47c-2.334 13.038-13.675 22.53-26.921 22.53h42.923c13.246 0 24.587-9.492 26.921-22.53l61.888-345.76c2.002-11.185-6.597-21.459-17.959-21.459zM365.201 0a53.852 53.852 0 0 0-52.375 40.999l-2.958 11.957 35.413 6.886 2.521-10.192a17.89 17.89 0 0 1 17.399-13.619h6.774V0h-6.774z" opacity=".1"/><path d="M332.89 10.725a53.83 53.83 0 0 0-10.649 10.565l26.308 26.073a17.869 17.869 0 0 1 10.847-10.369L332.89 10.725z" opacity=".1"/></symbol></svg>